<mxfile host="app.diagrams.net" modified="2021-01-13T08:38:46.178Z" agent="5.0 (Macintosh; Intel Mac OS X 10_15_6) AppleWebKit/605.1.15 (KHTML, like Gecko) Version/14.0.2 Safari/605.1.15" etag="1H15gn8BnmUliAKjisfi" version="14.1.8" type="github">
  <diagram id="opX1pMvSWH0r8Yal3t8K" name="Page-1">
    <mxGraphModel dx="2125" dy="718" grid="1" gridSize="10" guides="1" tooltips="1" connect="1" arrows="1" fold="1" page="1" pageScale="1" pageWidth="827" pageHeight="1169" math="0" shadow="0">
      <root>
        <mxCell id="0" />
        <mxCell id="1" parent="0" />
        <mxCell id="T9fkAJ0J8LxAEwVLuR2w-1" value="" style="edgeStyle=orthogonalEdgeStyle;rounded=0;orthogonalLoop=1;jettySize=auto;html=1;" edge="1" parent="1" source="T9fkAJ0J8LxAEwVLuR2w-2" target="T9fkAJ0J8LxAEwVLuR2w-4">
          <mxGeometry relative="1" as="geometry" />
        </mxCell>
        <mxCell id="T9fkAJ0J8LxAEwVLuR2w-2" value="&lt;p style=&quot;margin: 0px ; font-stretch: normal ; font-size: 13px ; line-height: normal ; font-family: &amp;#34;menlo&amp;#34; ; color: rgb(103 , 183 , 164) ; background-color: rgb(31 , 31 , 36)&quot;&gt;fuSetup&lt;/p&gt;" style="whiteSpace=wrap;html=1;" vertex="1" parent="1">
          <mxGeometry x="210" y="190" width="120" height="60" as="geometry" />
        </mxCell>
        <mxCell id="T9fkAJ0J8LxAEwVLuR2w-3" value="" style="edgeStyle=orthogonalEdgeStyle;rounded=0;orthogonalLoop=1;jettySize=auto;html=1;" edge="1" parent="1" source="T9fkAJ0J8LxAEwVLuR2w-4" target="T9fkAJ0J8LxAEwVLuR2w-7">
          <mxGeometry relative="1" as="geometry" />
        </mxCell>
        <mxCell id="T9fkAJ0J8LxAEwVLuR2w-4" value="&lt;p style=&quot;margin: 0px ; font-stretch: normal ; font-size: 13px ; line-height: normal ; font-family: &amp;#34;menlo&amp;#34; ; color: rgb(103 , 183 , 164) ; background-color: rgb(31 , 31 , 36)&quot;&gt;fuLoadAIModelFromPackage&lt;/p&gt;&lt;p style=&quot;margin: 0px ; font-stretch: normal ; font-size: 13px ; line-height: normal ; font-family: &amp;#34;menlo&amp;#34; ; color: rgb(252 , 106 , 93) ; background-color: rgb(31 , 31 , 36)&quot;&gt;ai_face_processor.bundle&lt;/p&gt;" style="whiteSpace=wrap;html=1;" vertex="1" parent="1">
          <mxGeometry x="170" y="300" width="200" height="60" as="geometry" />
        </mxCell>
        <mxCell id="T9fkAJ0J8LxAEwVLuR2w-5" value="" style="edgeStyle=orthogonalEdgeStyle;rounded=0;orthogonalLoop=1;jettySize=auto;html=1;" edge="1" parent="1" source="T9fkAJ0J8LxAEwVLuR2w-7" target="T9fkAJ0J8LxAEwVLuR2w-10">
          <mxGeometry relative="1" as="geometry" />
        </mxCell>
        <mxCell id="T9fkAJ0J8LxAEwVLuR2w-6" value="YES" style="edgeLabel;html=1;align=center;verticalAlign=middle;resizable=0;points=[];" vertex="1" connectable="0" parent="T9fkAJ0J8LxAEwVLuR2w-5">
          <mxGeometry x="-0.6205" relative="1" as="geometry">
            <mxPoint as="offset" />
          </mxGeometry>
        </mxCell>
        <mxCell id="T9fkAJ0J8LxAEwVLuR2w-7" value="是否需要舌头识别" style="rhombus;whiteSpace=wrap;html=1;" vertex="1" parent="1">
          <mxGeometry x="230" y="400" width="80" height="80" as="geometry" />
        </mxCell>
        <mxCell id="T9fkAJ0J8LxAEwVLuR2w-8" value="&lt;p style=&quot;margin: 0px ; font-stretch: normal ; font-size: 13px ; line-height: normal ; font-family: &amp;#34;menlo&amp;#34; ; color: rgb(103 , 183 , 164) ; background-color: rgb(31 , 31 , 36)&quot;&gt;fuLoadTongueModel&lt;/p&gt;&lt;p style=&quot;margin: 0px ; font-stretch: normal ; font-size: 13px ; line-height: normal ; font-family: &amp;#34;menlo&amp;#34; ; color: rgb(252 , 106 , 93) ; background-color: rgb(31 , 31 , 36)&quot;&gt;tongue.bundle&lt;/p&gt;" style="whiteSpace=wrap;html=1;" vertex="1" parent="1">
          <mxGeometry x="195" y="525" width="150" height="60" as="geometry" />
        </mxCell>
        <mxCell id="T9fkAJ0J8LxAEwVLuR2w-9" value="" style="edgeStyle=orthogonalEdgeStyle;rounded=0;orthogonalLoop=1;jettySize=auto;html=1;" edge="1" parent="1" source="T9fkAJ0J8LxAEwVLuR2w-10" target="T9fkAJ0J8LxAEwVLuR2w-12">
          <mxGeometry relative="1" as="geometry" />
        </mxCell>
        <mxCell id="T9fkAJ0J8LxAEwVLuR2w-10" value="&lt;p style=&quot;margin: 0px ; font-stretch: normal ; font-size: 13px ; line-height: normal ; font-family: &amp;#34;menlo&amp;#34; ; color: rgb(103 , 183 , 164) ; background-color: rgb(31 , 31 , 36)&quot;&gt;fuSetTongueTracking(true)&lt;/p&gt;" style="whiteSpace=wrap;html=1;" vertex="1" parent="1">
          <mxGeometry x="170" y="585" width="210" height="60" as="geometry" />
        </mxCell>
        <mxCell id="T9fkAJ0J8LxAEwVLuR2w-11" value="" style="edgeStyle=orthogonalEdgeStyle;rounded=0;orthogonalLoop=1;jettySize=auto;html=1;" edge="1" parent="1" source="T9fkAJ0J8LxAEwVLuR2w-12" target="T9fkAJ0J8LxAEwVLuR2w-17">
          <mxGeometry relative="1" as="geometry" />
        </mxCell>
        <mxCell id="T9fkAJ0J8LxAEwVLuR2w-12" value="&lt;p style=&quot;margin: 0px ; font-stretch: normal ; font-size: 13px ; line-height: normal ; font-family: &amp;#34;menlo&amp;#34; ; color: rgb(103 , 183 , 164) ; background-color: rgb(31 , 31 , 36)&quot;&gt;fuSetTrackFaceAIType&lt;span style=&quot;color: rgba(255 , 255 , 255 , 0.85)&quot;&gt;(&lt;/span&gt;FUAITYPE_FACEPROCESSOR_FACECAPTURE_TONGUETRACKING&lt;span style=&quot;color: rgba(255 , 255 , 255 , 0.85)&quot;&gt;)&lt;/span&gt;&lt;/p&gt;" style="whiteSpace=wrap;html=1;" vertex="1" parent="1">
          <mxGeometry x="-5" y="680" width="560" height="60" as="geometry" />
        </mxCell>
        <mxCell id="T9fkAJ0J8LxAEwVLuR2w-13" value="&lt;p style=&quot;margin: 0px ; font-stretch: normal ; font-size: 13px ; line-height: normal ; font-family: &amp;#34;menlo&amp;#34; ; color: rgb(103 , 183 , 164) ; background-color: rgb(31 , 31 , 36)&quot;&gt;fuSetTrackFaceAIType&lt;span style=&quot;color: rgba(255 , 255 , 255 , 0.85)&quot;&gt;(&lt;/span&gt;FUAITYPE_FACEPROCESSOR_FACECAPTURE&lt;span style=&quot;color: rgba(255 , 255 , 255 , 0.85)&quot;&gt;)&lt;/span&gt;&lt;/p&gt;" style="whiteSpace=wrap;html=1;" vertex="1" parent="1">
          <mxGeometry x="430" y="525" width="460" height="60" as="geometry" />
        </mxCell>
        <mxCell id="T9fkAJ0J8LxAEwVLuR2w-14" value="" style="edgeStyle=segmentEdgeStyle;endArrow=classic;html=1;exitX=1;exitY=0.5;exitDx=0;exitDy=0;" edge="1" parent="1" source="T9fkAJ0J8LxAEwVLuR2w-7" target="T9fkAJ0J8LxAEwVLuR2w-13">
          <mxGeometry width="50" height="50" relative="1" as="geometry">
            <mxPoint x="430" y="810" as="sourcePoint" />
            <mxPoint x="480" y="760" as="targetPoint" />
          </mxGeometry>
        </mxCell>
        <mxCell id="T9fkAJ0J8LxAEwVLuR2w-15" value="NO" style="edgeLabel;html=1;align=center;verticalAlign=middle;resizable=0;points=[];" vertex="1" connectable="0" parent="T9fkAJ0J8LxAEwVLuR2w-14">
          <mxGeometry x="-0.1745" y="-2" relative="1" as="geometry">
            <mxPoint as="offset" />
          </mxGeometry>
        </mxCell>
        <mxCell id="T9fkAJ0J8LxAEwVLuR2w-16" value="" style="edgeStyle=orthogonalEdgeStyle;rounded=0;orthogonalLoop=1;jettySize=auto;html=1;" edge="1" parent="1" source="T9fkAJ0J8LxAEwVLuR2w-17" target="T9fkAJ0J8LxAEwVLuR2w-21">
          <mxGeometry relative="1" as="geometry" />
        </mxCell>
        <mxCell id="T9fkAJ0J8LxAEwVLuR2w-17" value="&lt;p style=&quot;margin: 0px ; font-stretch: normal ; font-size: 13px ; line-height: normal ; font-family: &amp;#34;menlo&amp;#34; ; color: rgb(103 , 183 , 164) ; background-color: rgb(31 , 31 , 36)&quot;&gt;fuTrackFaceWithTongue&lt;/p&gt;" style="whiteSpace=wrap;html=1;" vertex="1" parent="1">
          <mxGeometry x="180" y="790" width="190" height="60" as="geometry" />
        </mxCell>
        <mxCell id="T9fkAJ0J8LxAEwVLuR2w-18" value="" style="edgeStyle=orthogonalEdgeStyle;rounded=0;orthogonalLoop=1;jettySize=auto;html=1;" edge="1" parent="1" source="T9fkAJ0J8LxAEwVLuR2w-19" target="T9fkAJ0J8LxAEwVLuR2w-22">
          <mxGeometry relative="1" as="geometry" />
        </mxCell>
        <mxCell id="T9fkAJ0J8LxAEwVLuR2w-19" value="&lt;p style=&quot;margin: 0px ; font-stretch: normal ; font-size: 13px ; line-height: normal ; font-family: &amp;#34;menlo&amp;#34; ; color: rgb(103 , 183 , 164) ; background-color: rgb(31 , 31 , 36)&quot;&gt;fuTrackFace&lt;/p&gt;" style="whiteSpace=wrap;html=1;" vertex="1" parent="1">
          <mxGeometry x="600" y="780" width="120" height="60" as="geometry" />
        </mxCell>
        <mxCell id="T9fkAJ0J8LxAEwVLuR2w-20" value="" style="endArrow=classic;html=1;exitX=0.5;exitY=1;exitDx=0;exitDy=0;" edge="1" parent="1" source="T9fkAJ0J8LxAEwVLuR2w-13" target="T9fkAJ0J8LxAEwVLuR2w-19">
          <mxGeometry width="50" height="50" relative="1" as="geometry">
            <mxPoint x="430" y="700" as="sourcePoint" />
            <mxPoint x="480" y="650" as="targetPoint" />
          </mxGeometry>
        </mxCell>
        <mxCell id="T9fkAJ0J8LxAEwVLuR2w-21" value="&lt;p style=&quot;margin: 0px ; font-stretch: normal ; font-size: 13px ; line-height: normal ; font-family: &amp;#34;menlo&amp;#34; ; color: rgb(252 , 106 , 93) ; background-color: rgb(31 , 31 , 36)&quot;&gt;&lt;span style=&quot;color: #67b7a4&quot;&gt;fuGetFaceInfo&lt;/span&gt;&lt;span style=&quot;color: rgba(255 , 255 , 255 , 0.85)&quot;&gt;(i, &lt;/span&gt;&quot;expression_with_tongue&quot;&lt;span style=&quot;color: rgba(255 , 255 , 255 , 0.85)&quot;&gt;, expression, &lt;/span&gt;&lt;span style=&quot;color: #d0bf69&quot;&gt;56&lt;/span&gt;&lt;span style=&quot;color: rgba(255 , 255 , 255 , 0.85)&quot;&gt;);&lt;/span&gt;&lt;/p&gt;" style="whiteSpace=wrap;html=1;" vertex="1" parent="1">
          <mxGeometry x="155" y="890" width="240" height="60" as="geometry" />
        </mxCell>
        <mxCell id="T9fkAJ0J8LxAEwVLuR2w-22" value="&lt;p style=&quot;margin: 0px ; font-stretch: normal ; font-size: 13px ; line-height: normal ; font-family: &amp;#34;menlo&amp;#34; ; color: rgba(255 , 255 , 255 , 0.85) ; background-color: rgb(31 , 31 , 36)&quot;&gt;&lt;span style=&quot;color: #67b7a4&quot;&gt;fuGetFaceInfo&lt;/span&gt;(i, &lt;span style=&quot;color: #fc6a5d&quot;&gt;&quot;expression&quot;&lt;/span&gt;, expression, &lt;span style=&quot;color: #d0bf69&quot;&gt;56&lt;/span&gt;);&lt;/p&gt;" style="whiteSpace=wrap;html=1;" vertex="1" parent="1">
          <mxGeometry x="565" y="890" width="190" height="60" as="geometry" />
        </mxCell>
      </root>
    </mxGraphModel>
  </diagram>
</mxfile>
